<?xml version="1.0" encoding="UTF-8" standalone="no"?>
<!-- Created with Inkscape (http://www.inkscape.org/) -->

<svg
   xmlns:dc="http://purl.org/dc/elements/1.1/"
   xmlns:cc="http://creativecommons.org/ns#"
   xmlns:rdf="http://www.w3.org/1999/02/22-rdf-syntax-ns#"
   xmlns:svg="http://www.w3.org/2000/svg"
   xmlns="http://www.w3.org/2000/svg"
   xmlns:sodipodi="http://sodipodi.sourceforge.net/DTD/sodipodi-0.dtd"
   xmlns:inkscape="http://www.inkscape.org/namespaces/inkscape"
   width="744.09448819"
   height="1052.3622047"
   id="svg2"
   version="1.1"
   inkscape:version="0.48.4 r9939"
   sodipodi:docname="icon_prototype.svg"
   inkscape:export-filename="/home/wbd/work/programming/serialport-bridge/icons/icon_prototype.png"
   inkscape:export-xdpi="90"
   inkscape:export-ydpi="90">
  <defs
     id="defs4">
    <symbol
       id="*Paper_Space" />
    <symbol
       id="*Model_Space" />
    <pattern
       y="0"
       x="0"
       width="8"
       patternUnits="userSpaceOnUse"
       id="Hatch"
       height="8">
      <path
         id="path3014"
         stroke-width="0.25"
         stroke="#000000"
         linecap="square"
         d="M8 4 l-4,4" />
      <path
         id="path3016"
         stroke-width="0.25"
         stroke="#000000"
         linecap="square"
         d="M6 2 l-4,4" />
      <path
         id="path3018"
         stroke-width="0.25"
         stroke="#000000"
         linecap="square"
         d="M4 0 l-4,4" />
    </pattern>
    <marker
       style="overflow:visible"
       refY="0.0"
       refX="0.0"
       orient="auto"
       id="DistanceX">
      <path
         id="path3011"
         style="stroke:#000000; stroke-width:0.5"
         d="M 3,-3 L -3,3 M 0,-5 L  0,5" />
    </marker>
    <symbol
       id="*Paper_Space-5" />
    <symbol
       id="*Model_Space-7" />
    <pattern
       y="0"
       x="0"
       width="8"
       patternUnits="userSpaceOnUse"
       id="Hatch-6"
       height="8">
      <path
         id="path3990"
         stroke-width="0.25"
         stroke="#000000"
         linecap="square"
         d="M8 4 l-4,4" />
      <path
         id="path3992"
         stroke-width="0.25"
         stroke="#000000"
         linecap="square"
         d="M6 2 l-4,4" />
      <path
         id="path3994"
         stroke-width="0.25"
         stroke="#000000"
         linecap="square"
         d="M4 0 l-4,4" />
    </pattern>
    <marker
       style="overflow:visible"
       refY="0.0"
       refX="0.0"
       orient="auto"
       id="DistanceX-3">
      <path
         id="path3987"
         style="stroke:#000000; stroke-width:0.5"
         d="M 3,-3 L -3,3 M 0,-5 L  0,5" />
    </marker>
    <symbol
       id="*Paper_Space-3" />
    <symbol
       id="*Model_Space-5" />
    <pattern
       y="0"
       x="0"
       width="8"
       patternUnits="userSpaceOnUse"
       id="Hatch-7"
       height="8">
      <path
         id="path3056"
         stroke-width="0.25"
         stroke="#000000"
         linecap="square"
         d="M8 4 l-4,4" />
      <path
         id="path3058"
         stroke-width="0.25"
         stroke="#000000"
         linecap="square"
         d="M6 2 l-4,4" />
      <path
         id="path3060"
         stroke-width="0.25"
         stroke="#000000"
         linecap="square"
         d="M4 0 l-4,4" />
    </pattern>
    <marker
       style="overflow:visible"
       refY="0.0"
       refX="0.0"
       orient="auto"
       id="DistanceX-36">
      <path
         id="path3053"
         style="stroke:#000000; stroke-width:0.5"
         d="M 3,-3 L -3,3 M 0,-5 L  0,5" />
    </marker>
  </defs>
  <sodipodi:namedview
     id="base"
     pagecolor="#ffffff"
     bordercolor="#666666"
     borderopacity="1.0"
     inkscape:pageopacity="0.0"
     inkscape:pageshadow="2"
     inkscape:zoom="0.98994949"
     inkscape:cx="6.9442866"
     inkscape:cy="484.28571"
     inkscape:document-units="px"
     inkscape:current-layer="layer1"
     showgrid="false"
     inkscape:window-width="1680"
     inkscape:window-height="995"
     inkscape:window-x="-2"
     inkscape:window-y="-3"
     inkscape:window-maximized="1" />
  <metadata
     id="metadata7">
    <rdf:RDF>
      <cc:Work
         rdf:about="">
        <dc:format>image/svg+xml</dc:format>
        <dc:type
           rdf:resource="http://purl.org/dc/dcmitype/StillImage" />
        <dc:title></dc:title>
      </cc:Work>
    </rdf:RDF>
  </metadata>
  <g
     inkscape:label="Layer 1"
     inkscape:groupmode="layer"
     id="layer1">
    <path
       inkscape:connector-curvature="0"
       d="m 16.395274,905.65722 a 0,0 0 0 0 0,0 0,0 0 0 0 0,0 z"
       style="fill:none;stroke:#000000;stroke-linecap:round"
       id="path3066"
       inkscape:export-filename="/home/wbd/work/programming/serialport-bridge/icons/icon_prototype.png"
       inkscape:export-xdpi="90"
       inkscape:export-ydpi="90" />
    <path
       inkscape:connector-curvature="0"
       d="m 654.19055,799.35801 a 283.46457,283.46457 0 0 0 -566.929134,0"
       style="fill:none;stroke:#000000;stroke-linecap:round"
       id="path3068"
       inkscape:export-filename="/home/wbd/work/programming/serialport-bridge/icons/icon_prototype.png"
       inkscape:export-xdpi="90"
       inkscape:export-ydpi="90" />
    <path
       inkscape:connector-curvature="0"
       d="m 725.05669,388.47903 a 779.52756,779.52756 0 0 0 -708.661416,0"
       style="fill:none;stroke:#000000;stroke-linecap:round"
       id="path3070"
       inkscape:export-filename="/home/wbd/work/programming/serialport-bridge/icons/icon_prototype.png"
       inkscape:export-xdpi="90"
       inkscape:export-ydpi="90" />
    <path
       inkscape:connector-curvature="0"
       d="m 87.261416,799.35801 -70.866142,0"
       style="fill:none;stroke:#000000;stroke-linecap:round"
       id="path3072"
       inkscape:export-filename="/home/wbd/work/programming/serialport-bridge/icons/icon_prototype.png"
       inkscape:export-xdpi="90"
       inkscape:export-ydpi="90" />
    <path
       inkscape:connector-curvature="0"
       d="m 654.19055,799.35801 70.86614,0"
       style="fill:none;stroke:#000000;stroke-linecap:round"
       id="path3074"
       inkscape:export-filename="/home/wbd/work/programming/serialport-bridge/icons/icon_prototype.png"
       inkscape:export-xdpi="90"
       inkscape:export-ydpi="90" />
    <path
       inkscape:connector-curvature="0"
       d="m 69.54488,196.99581 a 53.149606,53.149606 0 0 0 -53.149606,53.1496"
       style="fill:none;stroke:#000000;stroke-linecap:round"
       id="path3076"
       inkscape:export-filename="/home/wbd/work/programming/serialport-bridge/icons/icon_prototype.png"
       inkscape:export-xdpi="90"
       inkscape:export-ydpi="90" />
    <path
       inkscape:connector-curvature="0"
       d="m 69.54488,196.99581 602.3622,0"
       style="fill:none;stroke:#000000;stroke-linecap:round"
       id="path3078"
       inkscape:export-filename="/home/wbd/work/programming/serialport-bridge/icons/icon_prototype.png"
       inkscape:export-xdpi="90"
       inkscape:export-ydpi="90" />
    <path
       inkscape:connector-curvature="0"
       d="m 725.05669,250.14541 a 53.149606,53.149606 0 0 0 -53.14961,-53.1496"
       style="fill:none;stroke:#000000;stroke-linecap:round"
       id="path3080"
       inkscape:export-filename="/home/wbd/work/programming/serialport-bridge/icons/icon_prototype.png"
       inkscape:export-xdpi="90"
       inkscape:export-ydpi="90" />
    <path
       inkscape:connector-curvature="0"
       d="m 16.395274,852.50762 0,-602.36221"
       style="fill:none;stroke:#000000;stroke-linecap:round"
       id="path3082"
       inkscape:export-filename="/home/wbd/work/programming/serialport-bridge/icons/icon_prototype.png"
       inkscape:export-xdpi="90"
       inkscape:export-ydpi="90" />
    <path
       inkscape:connector-curvature="0"
       d="m 16.395274,852.50762 a 53.149606,53.149606 0 0 0 53.149606,53.1496"
       style="fill:none;stroke:#000000;stroke-linecap:round"
       id="path3084"
       inkscape:export-filename="/home/wbd/work/programming/serialport-bridge/icons/icon_prototype.png"
       inkscape:export-xdpi="90"
       inkscape:export-ydpi="90" />
    <path
       inkscape:connector-curvature="0"
       d="m 671.90708,905.65722 -602.3622,0"
       style="fill:none;stroke:#000000;stroke-linecap:round"
       id="path3086"
       inkscape:export-filename="/home/wbd/work/programming/serialport-bridge/icons/icon_prototype.png"
       inkscape:export-xdpi="90"
       inkscape:export-ydpi="90" />
    <path
       inkscape:connector-curvature="0"
       d="m 725.05669,250.14541 0,602.36221"
       style="fill:none;stroke:#000000;stroke-linecap:round"
       id="path3088"
       inkscape:export-filename="/home/wbd/work/programming/serialport-bridge/icons/icon_prototype.png"
       inkscape:export-xdpi="90"
       inkscape:export-ydpi="90" />
    <path
       inkscape:connector-curvature="0"
       d="m 671.90708,905.65722 a 53.149606,53.149606 0 0 0 53.14961,-53.1496"
       style="fill:none;stroke:#000000;stroke-linecap:round"
       id="path3090"
       inkscape:export-filename="/home/wbd/work/programming/serialport-bridge/icons/icon_prototype.png"
       inkscape:export-xdpi="90"
       inkscape:export-ydpi="90" />
    <path
       style="fill:#4351c6;fill-opacity:1;fill-rule:evenodd;stroke:none"
       d="m 17.449873,593.84458 0,-204.54669 10.131297,-5.08412 c 25.965665,-13.03018 64.727773,-28.93248 95.93472,-39.35757 131.15777,-43.81499 270.10332,-52.09531 405.07117,-24.13982 63.28948,13.10897 120.80824,32.76047 184.1003,62.89857 l 11.8693,5.65187 0,204.56222 0,204.56221 -34.69302,0 -34.693,0 -0.64979,-14.39467 C 653.13061,753.19853 646.04698,721.4095 633.99414,691.87923 594.45906,595.01568 504.83268,527.7499 400.29769,516.48697 c -15.55702,-1.67615 -47.63447,-1.4057 -63.13454,0.53231 -33.88298,4.23649 -62.4749,12.8079 -93.0092,27.88271 -25.87269,12.77337 -49.67924,29.46652 -70.47463,49.41683 -52.08057,49.96412 -82.967188,117.93882 -87.104547,191.69806 l -0.694113,12.37437 -34.215394,0 -34.215393,0 0,-204.54667 z"
       id="path3131"
       inkscape:connector-curvature="0"
       inkscape:export-filename="/home/wbd/work/programming/serialport-bridge/icons/icon_prototype.png"
       inkscape:export-xdpi="90"
       inkscape:export-ydpi="90" />
    <path
       style="fill:#ffffff;fill-opacity:1;fill-rule:evenodd;stroke:none"
       d="m 17.449873,315.4316 c 0,-61.10735 0.217654,-71.65735 1.587393,-76.94335 4.839077,-18.67461 18.634964,-33.01171 36.79519,-38.23868 6.34652,-1.82669 16.726753,-1.88893 315.012124,-1.88893 282.01284,0 308.93885,0.14102 314.16065,1.64542 18.58737,5.35497 30.69461,17.33684 37.12484,36.74038 1.69794,5.12364 1.86826,11.1547 2.18927,77.5292 0.20667,42.73147 -0.0248,71.97337 -0.56962,71.97337 -0.50475,0 -8.37098,-3.58958 -17.48052,-7.97685 C 555.00743,305.42259 379.01958,284.19235 212.40931,318.69553 149.69971,331.682 79.739111,355.54467 27.319045,381.82746 c -4.850257,2.43185 -9.055017,4.42155 -9.343911,4.42155 -0.288893,0 -0.525261,-31.86782 -0.525261,-70.81741 z"
       id="path3020"
       inkscape:connector-curvature="0"
       inkscape:export-filename="/home/wbd/work/programming/serialport-bridge/icons/icon_prototype.png"
       inkscape:export-xdpi="90"
       inkscape:export-ydpi="90" />
    <path
       style="fill:#ffffff;fill-opacity:1;fill-rule:evenodd;stroke:none"
       d="M 54.724502,902.02119 C 40.718113,897.37484 30.233492,888.95243 24.205795,877.50518 18.262993,866.21917 17.853934,863.18052 17.853934,830.32122 l 0,-29.88348 35.102801,-0.26563 35.102801,-0.26563 0.699532,-14.03515 c 1.914923,-38.42035 11.617002,-75.84215 28.574292,-110.21361 15.30832,-31.02907 29.34527,-50.59685 54.02837,-75.31651 29.02849,-29.07149 59.13078,-49.02108 95.70144,-63.42388 33.7972,-13.31051 66.3746,-19.50837 102.82893,-19.56323 28.55409,-0.043 52.61821,3.26295 79.49763,10.92135 33.44602,9.52935 70.21886,28.70977 98.79429,51.53031 11.4613,9.15308 33.12535,30.9449 42.56788,42.81895 37.61681,47.3034 58.98812,103.87996 62.10158,164.40233 l 0.68854,13.38452 35.20427,0 35.20428,0 0,28.89608 c 0,22.99693 -0.32407,30.14669 -1.5874,35.02202 -3.76594,14.53324 -13.28992,26.97723 -25.59632,33.44407 -13.83081,7.26788 14.69778,6.68844 -326.83445,6.63835 l -308.13683,-0.0452 -7.071068,-2.34569 0,0 z"
       id="path3808"
       inkscape:connector-curvature="0"
       inkscape:export-xdpi="90"
       inkscape:export-ydpi="90"
       inkscape:export-filename="/home/wbd/work/programming/serialport-bridge/icons/icon_prototype.png" />
  </g>
</svg>
