<?xml version="1.0" encoding="UTF-8" standalone="no"?>
<!-- Created with Inkscape (http://www.inkscape.org/) -->

<svg
   xmlns:dc="http://purl.org/dc/elements/1.1/"
   xmlns:cc="http://creativecommons.org/ns#"
   xmlns:rdf="http://www.w3.org/1999/02/22-rdf-syntax-ns#"
   xmlns:svg="http://www.w3.org/2000/svg"
   xmlns="http://www.w3.org/2000/svg"
   xmlns:sodipodi="http://sodipodi.sourceforge.net/DTD/sodipodi-0.dtd"
   xmlns:inkscape="http://www.inkscape.org/namespaces/inkscape"
   width="744.09448819"
   height="1052.3622047"
   id="svg2"
   version="1.1"
   inkscape:version="0.48.4 r9939"
   sodipodi:docname="drawing.svg">
  <defs
     id="defs4">
    <symbol
       id="*Paper_Space" />
    <symbol
       id="*Model_Space" />
    <pattern
       y="0"
       x="0"
       width="8"
       patternUnits="userSpaceOnUse"
       id="Hatch"
       height="8">
      <path
         id="path3014"
         stroke-width="0.25"
         stroke="#000000"
         linecap="square"
         d="M8 4 l-4,4" />
      <path
         id="path3016"
         stroke-width="0.25"
         stroke="#000000"
         linecap="square"
         d="M6 2 l-4,4" />
      <path
         id="path3018"
         stroke-width="0.25"
         stroke="#000000"
         linecap="square"
         d="M4 0 l-4,4" />
    </pattern>
    <marker
       style="overflow:visible"
       refY="0.0"
       refX="0.0"
       orient="auto"
       id="DistanceX">
      <path
         id="path3011"
         style="stroke:#000000; stroke-width:0.5"
         d="M 3,-3 L -3,3 M 0,-5 L  0,5" />
    </marker>
    <symbol
       id="*Paper_Space-5" />
    <symbol
       id="*Model_Space-7" />
    <pattern
       y="0"
       x="0"
       width="8"
       patternUnits="userSpaceOnUse"
       id="Hatch-6"
       height="8">
      <path
         id="path3990"
         stroke-width="0.25"
         stroke="#000000"
         linecap="square"
         d="M8 4 l-4,4" />
      <path
         id="path3992"
         stroke-width="0.25"
         stroke="#000000"
         linecap="square"
         d="M6 2 l-4,4" />
      <path
         id="path3994"
         stroke-width="0.25"
         stroke="#000000"
         linecap="square"
         d="M4 0 l-4,4" />
    </pattern>
    <marker
       style="overflow:visible"
       refY="0.0"
       refX="0.0"
       orient="auto"
       id="DistanceX-3">
      <path
         id="path3987"
         style="stroke:#000000; stroke-width:0.5"
         d="M 3,-3 L -3,3 M 0,-5 L  0,5" />
    </marker>
  </defs>
  <sodipodi:namedview
     id="base"
     pagecolor="#ffffff"
     bordercolor="#666666"
     borderopacity="1.0"
     inkscape:pageopacity="0.0"
     inkscape:pageshadow="2"
     inkscape:zoom="0.98994949"
     inkscape:cx="182.71083"
     inkscape:cy="484.28571"
     inkscape:document-units="px"
     inkscape:current-layer="layer1"
     showgrid="false"
     inkscape:window-width="1680"
     inkscape:window-height="995"
     inkscape:window-x="-2"
     inkscape:window-y="-3"
     inkscape:window-maximized="1" />
  <metadata
     id="metadata7">
    <rdf:RDF>
      <cc:Work
         rdf:about="">
        <dc:format>image/svg+xml</dc:format>
        <dc:type
           rdf:resource="http://purl.org/dc/dcmitype/StillImage" />
        <dc:title></dc:title>
      </cc:Work>
    </rdf:RDF>
  </metadata>
  <g
     inkscape:label="Layer 1"
     inkscape:groupmode="layer"
     id="layer1">
    <g
       id="g3828"
       inkscape:export-filename="/home/wbd/work/tmp/icons/icon_prototype.png"
       inkscape:export-xdpi="90"
       inkscape:export-ydpi="90">
      <path
         id="path4000"
         style="fill:none;stroke:none"
         d="m 510.30371,615.80425 35.43307,0"
         inkscape:connector-curvature="0" />
      <path
         id="path4002"
         style="fill:none;stroke:none"
         d="M 687.46907,559.11133 A 112.52751,112.52751 0 0 0 545.73678,615.80425"
         inkscape:connector-curvature="0" />
      <path
         id="path4004"
         style="fill:none;stroke:none"
         d="m 687.46907,544.93811 0,14.17322"
         inkscape:connector-curvature="0" />
      <path
         id="path4006"
         style="fill:none;stroke:none"
         d="M 687.46907,544.93811 A 503.59856,503.59856 0 0 0 368.57143,431.10333"
         inkscape:connector-curvature="0" />
      <path
         id="path4008"
         style="fill:none;stroke:none"
         d="M 510.30371,615.80425 A 141.73228,141.73228 0 0 0 368.57143,474.07197"
         inkscape:connector-curvature="0" />
      <path
         id="path4010"
         style="fill:none;stroke:none"
         d="m 226.83914,615.80425 -35.43307,0"
         inkscape:connector-curvature="0" />
      <path
         id="path4012"
         style="fill:none;stroke:none"
         d="M 191.40607,615.80425 A 112.52751,112.52751 0 0 0 49.673789,559.11133"
         inkscape:connector-curvature="0" />
      <path
         id="path4014"
         style="fill:none;stroke:none"
         d="m 49.673789,544.93811 0,14.17322"
         inkscape:connector-curvature="0" />
      <path
         id="path4016"
         style="fill:none;stroke:none"
         d="M 368.57143,431.10333 A 503.59856,503.59856 0 0 0 49.673789,544.93811"
         inkscape:connector-curvature="0" />
      <path
         id="path4018"
         style="fill:none;stroke:none"
         d="M 368.57143,474.07197 A 141.73228,141.73228 0 0 0 226.83914,615.80425"
         inkscape:connector-curvature="0" />
      <path
         id="path4020"
         style="fill:none;stroke:#000000;stroke-linecap:round"
         d="M 67.390324,226.04047 A 53.149606,53.149606 0 0 0 14.240718,279.19008"
         inkscape:connector-curvature="0" />
      <path
         id="path4022"
         style="fill:none;stroke:#000000;stroke-linecap:round"
         d="m 67.390324,226.04047 602.362206,0"
         inkscape:connector-curvature="0" />
      <path
         id="path4024"
         style="fill:none;stroke:#000000;stroke-linecap:round"
         d="M 722.90214,279.19008 A 53.149606,53.149606 0 0 0 669.75253,226.04047"
         inkscape:connector-curvature="0" />
      <path
         id="path4026"
         style="fill:none;stroke:#000000;stroke-linecap:round"
         d="m 14.240718,739.82 0,-460.62992"
         inkscape:connector-curvature="0" />
      <path
         id="path4028"
         style="fill:none;stroke:#000000;stroke-linecap:round"
         d="m 14.240718,739.82 a 53.149606,53.149606 0 0 0 53.149606,53.1496"
         inkscape:connector-curvature="0" />
      <path
         id="path4030"
         style="fill:none;stroke:#000000;stroke-linecap:round"
         d="m 669.75253,792.9696 -602.362206,0"
         inkscape:connector-curvature="0" />
      <path
         id="path4032"
         style="fill:none;stroke:#000000;stroke-linecap:round"
         d="m 722.90214,279.19008 0,460.62992"
         inkscape:connector-curvature="0" />
      <path
         id="path4034"
         style="fill:none;stroke:#000000;stroke-linecap:round"
         d="M 669.75253,792.9696 A 53.149606,53.149606 0 0 0 722.90214,739.82"
         inkscape:connector-curvature="0" />
      <path
         inkscape:connector-curvature="0"
         id="path4106"
         d="m 190.1584,611.46933 c -10.00637,-19.85268 -29.24776,-38.4591 -50.65805,-48.98634 -25.9982,-12.78306 -58.268331,-15.02384 -84.817529,-5.88958 l -4.086946,1.40612 0,-6.28818 0,-6.28817 9.107143,-7.11176 C 133.26865,480.86405 222.65733,444.74134 315.59588,434.90298 c 34.07039,-3.60665 72.48391,-3.60427 106.07142,0.007 93.89296,10.09402 183.32875,46.40731 257.14286,104.4068 l 7.14286,5.61251 0.20771,6.30758 c 0.20679,6.27987 0.20051,6.30544 -1.42858,5.81945 -26.6836,-7.96018 -50.06941,-7.94904 -74.13627,0.0354 -25.72884,8.53574 -49.75925,28.66349 -62.42585,52.28758 l -2.94004,5.48337 -16.86439,0.19127 -16.8644,0.19128 -0.4448,-2.69128 c -0.24464,-1.4802 -0.44834,-4.38088 -0.45266,-6.44597 -0.0271,-12.92241 -5.70053,-34.92328 -13.21488,-51.24533 -13.08973,-28.43243 -39.43198,-54.77468 -67.86441,-67.86441 -20.33745,-9.36297 -38.5368,-13.34323 -61.07143,-13.35655 -14.08874,-0.008 -22.52274,0.98019 -35.00907,4.10328 -50.01133,12.50886 -90.01907,52.43497 -102.91336,102.70338 -2.23066,8.69623 -4.20067,22.20586 -4.21116,28.87859 l -0.009,5.89286 -17.13082,0 -17.13083,0 -1.89011,-3.75 z"
         style="fill:#4351c6;fill-opacity:1;fill-rule:evenodd;stroke:none" />
      <text
         sodipodi:linespacing="125%"
         id="text4159"
         y="410.93362"
         x="152.85713"
         style="font-size:72px;font-style:normal;font-variant:normal;font-weight:bold;font-stretch:normal;text-align:start;line-height:125%;letter-spacing:0px;word-spacing:0px;writing-mode:lr-tb;text-anchor:start;fill:#000000;fill-opacity:1;stroke:none;font-family:Tlwg Typo;-inkscape-font-specification:Tlwg Typo Bold"
         xml:space="preserve"><tspan
           y="410.93362"
           x="152.85713"
           id="tspan4161"
           sodipodi:role="line">0001101100</tspan></text>
      <path
         inkscape:export-filename="/home/wbd/work/tmp/icons/path4198.png"
         inkscape:export-ydpi="90"
         inkscape:export-xdpi="90"
         inkscape:connector-curvature="0"
         id="path4186"
         d="M 62.300644,791.67119 C 40.072768,788.17716 23.665372,774.26624 17.207803,753.43946 15.398045,747.60268 15.32855,738.58131 15.32855,509.48762 c 0,-229.70785 0.0651,-238.09941 1.892549,-243.95184 2.450299,-7.84712 7.791327,-17.04906 13.09149,-22.55505 5.166993,-5.36764 15.309527,-11.40795 23.401758,-13.93674 5.870648,-1.83455 15.748699,-1.89401 314.662523,-1.89401 296.70691,0 308.83521,0.0716 314.66251,1.85738 14.56318,4.4629 25.6356,13.32539 32.1599,25.74114 7.20822,13.71729 6.70112,-5.56034 6.70112,254.73912 0,259.41471 0.48002,240.62621 -6.50203,254.49073 -5.88852,11.69302 -15.16842,19.57667 -29.71282,25.24219 l -6.68678,2.60472 -307.08637,0.12145 C 203.01489,792.0135 63.689604,791.88952 62.300644,791.67119 z M 227.31767,605.3933 c 2.22608,-33.96843 17.03583,-65.75732 42.22917,-90.64424 19.48514,-19.24813 43.72656,-32.1929 71.55591,-38.21042 11.75416,-2.5416 41.08274,-2.5673 53.81072,-0.0472 38.17067,7.55781 70.47666,29.24176 92.61955,62.1667 12.01154,17.86031 20.81019,44.50152 22.81031,69.06677 l 0.63742,7.82868 17.52341,0 c 16.82559,0 17.5498,-0.0831 18.18612,-2.088 1.53866,-4.84789 13.68019,-21.24549 21.38925,-28.887 14.56064,-14.43305 32.20266,-24.46589 52.3304,-29.75979 7.9401,-2.08837 11.32994,-2.38609 26.76904,-2.35108 17.05472,0.0387 24.54131,1.05279 37.62818,5.09702 1.56559,0.48382 1.7651,-0.2413 1.74445,-6.3403 l -0.0233,-6.88658 -14.37136,-10.73703 C 639.58619,509.26683 607.38254,490.31231 572.21461,474.7765 404.46315,400.67048 210.13036,423.51506 63.815873,534.54076 l -13.131983,9.96475 -0.301591,6.86185 c -0.346713,7.88854 -1.731842,7.48956 12.423421,3.5785 10.136952,-2.80081 31.037889,-3.82169 42.85806,-2.09336 34.09804,4.9858 65.9743,26.69465 82.44584,56.14853 l 3.66443,6.55261 17.43889,0 17.43888,0 0.66585,-10.16034 0,0 z M 183.27234,409.81885 c 4.54901,-3.39634 6.67124,-8.92096 7.13245,-18.56732 0.54953,-11.49409 -1.46131,-18.73042 -6.41296,-23.07803 -3.16011,-2.77461 -4.28467,-3.13769 -9.71824,-3.13769 -5.76403,0 -6.38151,0.23689 -9.96931,3.82469 -4.93706,4.93706 -6.3671,10.29126 -5.85837,21.9342 0.47544,10.88107 3.23406,17.07107 8.91601,20.00645 4.42212,2.28452 12.17606,1.8058 15.91042,-0.9823 z m 41.67862,0.80717 c 2.26007,-1.21162 4.4236,-3.64347 6.04516,-6.79488 2.22982,-4.33351 2.52237,-6.15206 2.49964,-15.53818 -0.0219,-9.06481 -0.36265,-11.2683 -2.31359,-14.96302 -3.03427,-5.74635 -7.34454,-8.28557 -14.07274,-8.29036 -4.64096,-0.003 -5.78706,0.43591 -9.21223,3.53034 -5.17928,4.67917 -6.54556,9.7632 -6.03563,22.45905 0.30604,7.61936 0.87288,10.72946 2.44668,13.42417 4.41174,7.55395 13.17723,10.17514 20.64271,6.17288 l 0,0 z m 43.43108,-0.38589 c 6.67991,-4.54631 7.53043,-6.70203 7.90325,-20.03151 0.30218,-10.80365 0.10329,-12.54617 -1.90565,-16.6961 -2.85155,-5.89051 -6.98755,-8.46916 -13.58402,-8.46916 -11.22778,0 -15.59979,6.43304 -15.63518,23.00586 -0.0236,11.08627 1.2286,15.84865 5.32933,20.26729 4.45874,4.80442 12.40436,5.65866 17.89227,1.92362 l 0,0 z m 130.60768,-0.32054 c 1.48104,-1.07376 3.7222,-3.99786 4.98034,-6.49799 1.92672,-3.8287 2.28442,-6.139 2.26784,-14.64721 -0.0326,-16.74773 -4.85257,-23.72658 -16.39238,-23.73481 -4.67148,-0.003 -5.77903,0.42864 -9.33429,3.6406 -5.18098,4.68071 -6.38809,9.19807 -5.9099,22.11643 0.42522,11.4869 2.07092,15.51844 7.97229,19.53006 2.81429,1.9131 4.46166,2.28765 8.6021,1.95574 2.8814,-0.23098 6.29889,-1.26437 7.814,-2.36282 l 0,0 z m 129.71689,-0.23448 c 4.44017,-3.16168 6.62357,-8.56929 7.16182,-17.73762 0.6155,-10.48395 -1.04401,-17.5886 -5.24296,-22.44607 -3.11914,-3.60832 -3.73481,-3.8699 -10.0557,-4.27237 -6.69883,-0.42656 -6.7532,-0.40866 -10.67556,3.5137 -5.06714,5.06713 -6.48855,10.3191 -5.97574,22.07971 0.46217,10.59944 2.59703,15.81306 7.98793,19.50765 4.35116,2.98202 12.12571,2.68354 16.80021,-0.645 l 0,0 z m 44.79124,-1.91788 c 4.69518,-5.03347 6.55259,-12.64284 5.59666,-22.9282 -1.26478,-13.6086 -6.30652,-19.79192 -16.14405,-19.79945 -5.88381,-0.004 -10.37668,2.45905 -13.22223,7.25006 -1.54106,2.59467 -2.08201,5.72437 -2.3924,13.84148 -0.45081,11.78933 0.58739,16.63519 4.58078,21.38107 3.53143,4.19686 5.79814,5.04966 12.3399,4.64263 4.88051,-0.30368 5.87023,-0.77358 9.24134,-4.38759 z m -254.2269,1.46275 c 1.97113,-3.12977 -0.42715,-5.26351 -6.30397,-5.60863 l -5.19927,-0.30533 0,-19.14011 c 0,-14.64788 -0.29636,-19.13604 -1.26269,-19.12279 -3.54206,0.0486 -16.53753,4.15383 -17.5553,5.54571 -1.49189,2.04028 -0.65988,5.32207 1.52509,6.01555 0.92502,0.29359 3.25943,0.0813 5.18757,-0.47162 1.92813,-0.55299 3.62234,-1.00543 3.76491,-1.00543 0.14256,0 0.2592,6.36396 0.2592,14.14214 l 0,14.14213 -5.01522,0 c -3.92456,0 -5.24262,0.42492 -6.06092,1.9539 -1.35444,2.53081 -1.33834,2.6599 0.56955,4.5678 2.47264,2.47263 28.47271,1.8563 30.09105,-0.71332 z m 43.43646,0 c 1.97128,-3.12973 -0.427,-5.26351 -6.30387,-5.60863 l -5.19927,-0.30533 0,-19.14011 c 0,-14.64788 -0.29636,-19.13604 -1.26269,-19.12279 -2.72017,0.0373 -16.07248,3.91085 -17.46522,5.06672 -1.90055,1.57732 -1.88778,4.42765 0.027,6.01676 1.38506,1.1495 3.39507,1.01093 8.85195,-0.61024 1.6247,-0.48267 1.76777,0.62487 1.76777,13.68503 l 0,14.21021 -4.84873,0 c -5.0181,0 -7.2731,1.25278 -7.2731,4.04061 0,3.62175 2.07835,4.10121 16.53491,3.81442 12.10159,-0.24007 14.21279,-0.52488 15.17128,-2.04665 l 0,0 z m 85.29986,1.39015 c 0.76313,-0.48378 1.19953,-2.1136 1.01015,-3.7726 -0.31524,-2.76157 -0.62262,-2.9375 -5.63673,-3.22618 l -5.3033,-0.30533 0,-19.14011 c 0,-21.96237 1.04019,-20.29418 -10.74519,-17.23252 -8.83324,2.29473 -9.45786,2.66486 -9.45786,5.60449 0,3.10018 2.35697,4.94275 5.25482,4.10798 6.39828,-1.8431 5.85686,-2.99889 5.85686,12.50274 l 0,14.15742 -5.3033,0.30533 c -5.01411,0.28868 -5.32149,0.46461 -5.63674,3.22618 -0.18937,1.659 0.24703,3.28882 1.01016,3.7726 0.73897,0.46847 7.25297,0.85175 14.47556,0.85175 7.22259,0 13.73659,-0.38328 14.47557,-0.85175 l 0,0 z m 43.99967,-1.39015 c 1.97127,-3.12973 -0.427,-5.26351 -6.30388,-5.60863 l -5.19926,-0.30533 0,-19.14011 c 0,-14.64788 -0.29636,-19.13604 -1.26269,-19.12279 -3.72062,0.051 -16.56392,4.18991 -17.66215,5.69184 -1.66294,2.2742 -1.61394,2.90219 0.38223,4.89836 1.58656,1.58655 3.02468,1.56721 8.69362,-0.11696 1.6247,-0.48267 1.76777,0.62487 1.76777,13.68503 l 0,14.21021 -5.07242,0 c -4.4141,0 -5.21999,0.32388 -6.20943,2.49547 -0.87299,1.916 -0.83406,2.86049 0.16762,4.06745 1.08862,1.31172 3.64584,1.52574 15.44489,1.29262 12.17984,-0.24066 14.29463,-0.52448 15.2537,-2.04716 z"
         style="fill:#ffffff;fill-opacity:1;fill-rule:evenodd;stroke:none" />
      <path
         inkscape:export-ydpi="90"
         inkscape:export-xdpi="90"
         inkscape:export-filename="/home/wbd/work/tmp/icons/path4198.png"
         inkscape:connector-curvature="0"
         id="path4188"
         d="m 214.58112,403.34068 c -3.27518,-1.90762 -4.7982,-6.54696 -4.7982,-14.616 0,-11.54244 3.23156,-16.70802 9.66203,-15.44457 3.26141,0.6408 5.67865,5.3433 6.21456,12.08986 1.05584,13.29165 -4.27241,21.93483 -11.07839,17.97071 z"
         style="fill:#ffffff;fill-opacity:1;fill-rule:evenodd;stroke:none" />
      <path
         inkscape:export-ydpi="90"
         inkscape:export-xdpi="90"
         inkscape:export-filename="/home/wbd/work/tmp/icons/path4198.png"
         inkscape:connector-curvature="0"
         id="path4190"
         d="m 255.83465,401.32379 c -2.39834,-2.85026 -2.61486,-3.87628 -2.6114,-12.37436 0.005,-11.72861 1.96755,-15.8324 7.57237,-15.8324 5.60481,0 7.56759,4.10379 7.57237,15.8324 0.003,8.49808 -0.21306,9.5241 -2.6114,12.37436 -1.53774,1.8275 -3.58163,3.10797 -4.96097,3.10797 -1.37934,0 -3.42323,-1.28047 -4.96097,-3.10797 z"
         style="fill:#ffffff;fill-opacity:1;fill-rule:evenodd;stroke:none" />
      <path
         inkscape:export-ydpi="90"
         inkscape:export-xdpi="90"
         inkscape:export-filename="/home/wbd/work/tmp/icons/path4198.png"
         inkscape:connector-curvature="0"
         id="path4192"
         d="m 385.85833,401.99451 c -2.64725,-2.27643 -2.85708,-3.03031 -3.18017,-11.42571 -0.40848,-10.61435 1.25391,-15.99719 5.25022,-17.0002 3.78201,-0.94923 5.77444,-0.23987 8.10606,2.88599 1.73764,2.32954 2.11538,4.30256 2.12736,11.11168 0.0155,8.82412 -1.56042,14.26546 -4.60326,15.89394 -2.82923,1.51416 -4.63457,1.17053 -7.70021,-1.4657 l 0,0 z"
         style="fill:#ffffff;fill-opacity:1;fill-rule:evenodd;stroke:none" />
      <path
         inkscape:export-ydpi="90"
         inkscape:export-xdpi="90"
         inkscape:export-filename="/home/wbd/work/tmp/icons/path4198.png"
         inkscape:connector-curvature="0"
         id="path4194"
         d="m 515.37509,402.01924 c -3.00728,-3.00728 -3.95955,-7.87113 -3.31226,-16.91781 0.39728,-5.55255 1.00114,-7.55896 2.87542,-9.55404 3.10718,-3.30744 7.52783,-2.96052 10.33088,0.81074 4.01541,5.40238 3.48259,21.33379 -0.8587,25.67508 -3.04966,3.04966 -5.97624,3.04513 -9.03534,-0.014 l 0,0 z"
         style="fill:#ffffff;fill-opacity:1;fill-rule:evenodd;stroke:none" />
      <path
         inkscape:export-filename="/home/wbd/work/tmp/icons/path4198.png"
         inkscape:export-ydpi="90"
         inkscape:export-xdpi="90"
         inkscape:connector-curvature="0"
         id="path4196"
         d="m 558.59441,401.99502 c -2.6754,-2.30016 -2.85362,-2.97228 -3.17987,-11.99199 -0.3893,-10.76268 1.11282,-15.39608 5.33486,-16.45575 3.68823,-0.92568 5.70274,-0.2008 7.99961,2.8785 1.74711,2.34225 2.08694,4.25409 2.06486,11.61675 -0.0186,6.20061 -0.52085,9.74998 -1.69433,11.97367 -2.67672,5.07223 -6.16439,5.72795 -10.52513,1.97882 z"
         style="fill:#ffffff;fill-opacity:1;fill-rule:evenodd;stroke:none" />
      <path
         inkscape:export-ydpi="90"
         inkscape:export-xdpi="90"
         inkscape:connector-curvature="0"
         id="path4198"
         d="m 169.90292,402.01924 c -2.94286,-2.94286 -3.92183,-7.6692 -3.37319,-16.28535 0.49653,-7.79786 3.01687,-11.95527 7.52444,-12.41186 4.9309,-0.49948 7.60642,3.33911 8.21032,11.7794 0.64729,9.04668 -0.30498,13.91053 -3.31226,16.91781 -3.06306,3.06306 -5.98624,3.06306 -9.04931,0 l 0,0 z"
         style="fill:#ffffff;fill-opacity:1;fill-rule:evenodd;stroke:none" />
    </g>
  </g>
</svg>
